<svg id="Camada_1" data-name="Camada 1" xmlns="http://www.w3.org/2000/svg" viewBox="0 0 100 100"><defs><style>.cls-1{fill:#fff;}</style></defs><circle class="cls-1" cx="38.95" cy="53.19" r="1.18"/><path class="cls-1" d="M50,57a3.32,3.32,0,0,1-2.35-1L37.35,45.73a3.34,3.34,0,0,1,0-4.71l10.3-10.29a3.32,3.32,0,0,1,4.7,0L62.65,41a3.34,3.34,0,0,1,0,4.71l-1.34,1.34-.53-.53,1.34-1.34a2.6,2.6,0,0,0,.75-1.82,2.56,2.56,0,0,0-.75-1.82l-10.3-10.3a2.57,2.57,0,0,0-3.64,0l-10.3,10.3a2.56,2.56,0,0,0-.75,1.82,2.6,2.6,0,0,0,.75,1.82l10.3,10.29a2.57,2.57,0,0,0,3.64,0l2.57-2.57.53.53L52.35,56A3.32,3.32,0,0,1,50,57Z"/><path class="cls-1" d="M50,70.24a3.31,3.31,0,0,1-2.35-1L37.35,59a3.33,3.33,0,0,1,0-4.71l1.4-1.41.54.53L37.88,54.8a2.6,2.6,0,0,0,0,3.65l10.3,10.29a2.58,2.58,0,0,0,3.64,0l10.3-10.29a2.6,2.6,0,0,0,0-3.65L51.82,44.51a2.57,2.57,0,0,0-3.64,0l-2.57,2.57-.53-.54L47.65,44a3.32,3.32,0,0,1,4.7,0l10.3,10.29a3.33,3.33,0,0,1,0,4.71L52.35,69.27A3.31,3.31,0,0,1,50,70.24Z"/><circle class="cls-1" cx="54.77" cy="53.19" r="1.18"/><circle class="cls-1" cx="45.32" cy="46.85" r="1.18"/><circle class="cls-1" cx="60.98" cy="46.85" r="1.18"/></svg>